<svg xmlns="http://www.w3.org/2000/svg" viewBox="0 -135 680 680"><defs><style>.cls-1{fill:#fff;}.cls-2{fill:#fdce00;}.cls-3{fill:#ff452b;}.cls-4{fill:#18b465;}</style></defs><path class="cls-2" d="M587.66,204.96c0-78.29-63.47-141.76-141.76-141.76-44.94,0-84.99,20.91-110.96,53.54,19.28,24.21,30.8,54.87,30.8,88.22s-11.53,64.01-30.8,88.22c25.97,32.62,66.02,53.54,110.96,53.54,0,0,0,0,0,0h141.75v-141.76h0Z"/><path class="cls-3" d="M334.94,116.74c-25.97-32.62-66.02-53.54-110.96-53.54-78.29,0-141.76,63.47-141.76,141.76s63.47,141.76,141.76,141.76c44.94,0,84.99-20.91,110.96-53.54-19.28-24.21-30.8-54.87-30.8-88.22s11.53-64.01,30.8-88.22Z"/><path class="cls-4" d="M334.94,116.74c-19.28,24.21-30.8,54.87-30.8,88.22s11.53,64.01,30.8,88.22c19.28-24.21,30.8-54.87,30.8-88.22s-11.53-64.01-30.8-88.22Z"/><path class="cls-1" d="M283.76,175.49c-9.25-27.74-31.01-39.71-59.3-39.71s-50.05,12.51-58.21,39.71h117.51Z"/><path class="cls-1" d="M508.46,204.32c0-38.62-25.03-65.28-62.02-65.28s-62.02,26.66-62.02,65.28,25.02,65.28,62.02,65.28,62.02-26.66,62.02-65.28Z"/></svg>
