<?xml version="1.0" encoding="UTF-8"?><svg id="Layer_1" xmlns="http://www.w3.org/2000/svg" viewBox="0 0 3649.24 478.63"><defs><style>.cls-1{fill:#fff;}.cls-2{fill:#fdce00;}.cls-3{fill:#ff452b;}.cls-4{fill:#18b465;}</style></defs><path class="cls-1" d="M50.89,73.81h169.41c69.73,0,104.59,39.22,104.59,93.7,0,34.86-15.8,62.1-43.03,76.81v1.09c37.59,13.62,59.38,45.21,59.38,87.16,0,56.11-35.41,97.51-106.77,97.51H50.89V73.81ZM205.6,213.81c23.42,0,32.14-13.07,32.14-28.87s-6.54-29.42-32.14-29.42h-66.46v58.29h66.46ZM216.5,348.36c25.6,0,34.32-14.16,34.32-31.6s-11.44-32.14-34.32-32.14h-77.35v63.74h77.35Z"/><path class="cls-1" d="M360.3,300.43v-139.45h81.71v139.45c0,42.49,20.7,60.47,51.21,60.47s51.2-17.98,51.2-60.47v-139.45h81.71v139.45c0,90.43-53.38,136.73-132.92,136.73s-132.92-45.76-132.92-136.73Z"/><path class="cls-1" d="M646.83,348.36h80.62c.54,14.16,10.89,21.24,33.23,21.24,25.06,0,33.23-8.71,33.23-20.15,0-17.98-19.61-19.61-44.67-23.42-37.04-5.45-98.05-14.71-98.05-79.53,0-54.47,43.04-92.61,110.04-92.61s108.4,38.68,110.04,87.16h-79.53c-2.18-12.53-13.07-19.61-29.42-19.61-20.16,0-28.33,10.35-28.33,21.24,0,16.34,19.61,18.52,44.67,22.33,38.68,5.45,98.05,15.8,98.05,79.53,0,55.56-45.76,92.61-114.94,92.61s-113.85-37.04-114.94-88.79Z"/><path class="cls-1" d="M890.68,84.16c0-29.96,22.33-52.29,52.3-52.29s52.3,22.33,52.3,52.29-22.33,52.3-52.3,52.3-52.3-22.33-52.3-52.3ZM902.12,160.97h81.71v269.1h-81.71V160.97Z"/><path class="cls-1" d="M1019.14,290.62c0-90.43,53.39-136.73,132.92-136.73s132.92,45.76,132.92,136.73v139.45h-81.71v-139.45c0-42.49-20.7-60.47-51.2-60.47s-51.21,17.98-51.21,60.47v139.45h-81.71v-139.45Z"/><path class="cls-1" d="M1305.67,295.52c0-81.71,59.92-141.63,144.9-141.63s143.27,59.92,143.27,141.63v22.88h-203.19c6.54,31.59,30.51,45.76,59.92,45.76,23.42,0,40.86-4.9,51.21-19.61h84.44c-17.43,55.56-68.64,92.61-135.64,92.61-84.98,0-144.9-59.92-144.9-141.63ZM1509.95,266.65c-9.26-27.78-31.05-39.76-59.38-39.76s-50.12,12.53-58.29,39.76h117.66Z"/><path class="cls-1" d="M1603.64,348.36h80.62c.54,14.16,10.89,21.24,33.23,21.24,25.06,0,33.23-8.71,33.23-20.15,0-17.98-19.61-19.61-44.67-23.42-37.04-5.45-98.05-14.71-98.05-79.53,0-54.47,43.04-92.61,110.04-92.61s108.4,38.68,110.04,87.16h-79.53c-2.18-12.53-13.07-19.61-29.42-19.61-20.16,0-28.33,10.35-28.33,21.24,0,16.34,19.61,18.52,44.67,22.33,38.68,5.45,98.05,15.8,98.05,79.53,0,55.56-45.76,92.61-114.94,92.61s-113.85-37.04-114.94-88.79Z"/><path class="cls-1" d="M1843.32,348.36h80.62c.55,14.16,10.9,21.24,33.23,21.24,25.06,0,33.23-8.71,33.23-20.15,0-17.98-19.61-19.61-44.67-23.42-37.04-5.45-98.05-14.71-98.05-79.53,0-54.47,43.03-92.61,110.04-92.61s108.4,38.68,110.04,87.16h-79.53c-2.18-12.53-13.07-19.61-29.42-19.61-20.16,0-28.33,10.35-28.33,21.24,0,16.34,19.61,18.52,44.67,22.33,38.68,5.45,98.05,15.8,98.05,79.53,0,55.56-45.76,92.61-114.94,92.61s-113.85-37.04-114.94-88.79Z"/><path class="cls-1" d="M2235.8,73.81h88.25v134.55h133.46V73.81h88.25v356.26h-88.25v-140h-133.46v140h-88.25V73.81Z"/><path class="cls-1" d="M3081.73,292.25c0-93.7,69.73-138.37,130.74-138.37,32.14,0,59.38,12.53,76.26,36.5V43.31h81.71v249.49c0,90.43-61.01,144.36-143.27,144.36s-145.45-58.29-145.45-144.9ZM3288.73,295.52c0-38.68-25.06-65.37-62.1-65.37s-62.1,26.69-62.1,65.37,25.06,65.37,62.1,65.37,62.1-26.69,62.1-65.37Z"/><path class="cls-1" d="M3382.13,348.36h80.62c.54,14.16,10.89,21.24,33.23,21.24,25.06,0,33.23-8.71,33.23-20.15,0-17.98-19.61-19.61-44.67-23.42-37.04-5.45-98.05-14.71-98.05-79.53,0-54.47,43.04-92.61,110.04-92.61s108.4,38.68,110.04,87.16h-79.53c-2.18-12.53-13.07-19.61-29.42-19.61-20.16,0-28.33,10.35-28.33,21.24,0,16.34,19.61,18.52,44.67,22.33,38.68,5.45,98.05,15.8,98.05,79.53,0,55.56-45.76,92.61-114.94,92.61s-113.85-37.04-114.94-88.79Z"/><path class="cls-2" d="M3067.08,295.65c0-78.29-63.47-141.76-141.76-141.76-44.94,0-84.99,20.91-110.96,53.54,19.28,24.21,30.8,54.87,30.8,88.22s-11.53,64.01-30.8,88.22c25.97,32.62,66.02,53.54,110.96,53.54,0,0,0,0,0,0h141.75v-141.76h0Z"/><path class="cls-3" d="M2814.36,207.43c-25.97-32.62-66.02-53.54-110.96-53.54-78.29,0-141.76,63.47-141.76,141.76s63.47,141.76,141.76,141.76c44.94,0,84.99-20.91,110.96-53.54-19.28-24.21-30.8-54.87-30.8-88.22s11.53-64.01,30.8-88.22Z"/><path class="cls-4" d="M2814.36,207.43c-19.28,24.21-30.8,54.87-30.8,88.22s11.53,64.01,30.8,88.22c19.28-24.21,30.8-54.87,30.8-88.22s-11.53-64.01-30.8-88.22Z"/><path class="cls-1" d="M2763.18,266.18c-9.25-27.74-31.01-39.71-59.3-39.71s-50.05,12.51-58.21,39.71h117.51Z"/><path class="cls-1" d="M2987.88,295.01c0-38.62-25.03-65.28-62.02-65.28s-62.02,26.66-62.02,65.28,25.02,65.28,62.02,65.28,62.02-26.66,62.02-65.28Z"/></svg>